<?xml version="1.0" standalone="no"?>
<!DOCTYPE svg PUBLIC "-//W3C//DTD SVG 1.1//EN" "http://www.w3.org/Graphics/SVG/1.1/DTD/svg11.dtd" >
<svg xmlns="http://www.w3.org/2000/svg" xmlns:xlink="http://www.w3.org/1999/xlink" version="1.1">
<metadata>
Created by FontForge 20150102 at Thu Feb  5 09:12:53 2015
 By uniteet7
Copyright 2007 Adobe Systems Incorporated. All rights reserved.
</metadata>
<defs>
<font id="FuturaHEMAProOT-Bold" horiz-adv-x="1000" >
  <font-face 
    font-family="FuturaHEMAProOT"
    font-weight="400"
    font-stretch="normal"
    units-per-em="1000"
    panose-1="2 0 8 3 3 0 0 2 0 4"
    ascent="800"
    descent="-200"
    x-height="614"
    cap-height="766"
    bbox="-99 -246 3784 1034"
    underline-thickness="20"
    underline-position="-113"
    stemh="172"
    stemv="183"
    unicode-range="U+0020-25CA"
  />
<missing-glyph horiz-adv-x="500" 
d="M0 0v700h500v-700h-500zM250 395l170 255h-340zM280 350l170 -255v510zM80 50h340l-170 255zM50 605v-510l170 255z" />
    <glyph glyph-name=".notdef" horiz-adv-x="500" 
d="M0 0v700h500v-700h-500zM250 395l170 255h-340zM280 350l170 -255v510zM80 50h340l-170 255zM50 605v-510l170 255z" />
    <glyph glyph-name="eth" unicode="&#xf0;" horiz-adv-x="300" 
d="M290 444h-114l-172 322h166z" />
    <glyph glyph-name="lslash" unicode="&#x142;" horiz-adv-x="600" 
d="M579 176h-200v-204h-148v204h-201v147h201v204h148v-204h200v-147z" />
    <glyph glyph-name="Scaron" unicode="&#x160;" horiz-adv-x="356" 
d="M338 821c-5 -58 -46 -153 -156 -153c-118 0 -153 94 -162 153h93c12 -44 35 -63 68 -63c31 0 54 20 64 63h93z" />
    <glyph glyph-name="onehalf" unicode="&#xbd;" horiz-adv-x="300" 
d="M267 484c0 -63 -52 -115 -115 -115s-115 52 -115 115s52 115 115 115s115 -52 115 -115zM267 87c0 -63 -52 -115 -115 -115s-115 52 -115 115s52 115 115 115s115 -52 115 -115z" />
    <glyph glyph-name="onequarter" unicode="&#xbc;" horiz-adv-x="300" 
d="M315 484c0 -63 -52 -115 -115 -115s-115 52 -115 115s52 115 115 115s115 -52 115 -115zM294 175l-195 -348h-124l133 348h186z" />
    <glyph glyph-name="onesuperior" unicode="&#xb9;" horiz-adv-x="17176" 
 />
    <glyph glyph-name="multiply" unicode="&#xd7;" horiz-adv-x="600" 
d="M553 106l-105 -104l-144 144l-142 -142l-104 104l142 142l-144 144l104 105l145 -145l141 142l104 -104l-141 -142z" />
    <glyph glyph-name="space" unicode=" " horiz-adv-x="210" 
 />
    <glyph glyph-name="exclam" unicode="!" horiz-adv-x="300" 
d="M255 766l-12 -518h-189l-12 518h213zM248 75c0 -54 -45 -99 -99 -99s-99 45 -99 99s45 99 99 99s99 -45 99 -99z" />
    <glyph glyph-name="quotedbl" unicode="&#x22;" horiz-adv-x="498" 
d="M449 766l-31 -367h-116l-28 367h175zM227 766l-31 -367h-117l-28 367h176z" />
    <glyph glyph-name="numbersign" unicode="#" horiz-adv-x="3403" 
d="M3248 0h-216l-52 142h-265l-51 -142h-213l284 765l229 1zM2928 296l-81 234l-82 -234h163zM2361 0h-190v508l-182 -488h-76l-184 493v-513h-190v766h270l142 -358l142 358h268v-766zM1369 0h-448v766h444v-174h-244v-124h230v-170h-230v-128h248v-170zM765 0h-200v311
h-280v-311h-200v766h200v-288h280v288h200v-766z" />
    <glyph glyph-name="dollar" unicode="$" horiz-adv-x="435" 
d="M409 312c0 -75 -58 -128 -128 -145v-167h-100v165c-53 0 -129 40 -158 70l70 106s59 -55 135 -55c14 0 36 7 36 23c0 14 -23 20 -41 25c-23 6 -50 14 -79 25c-56 21 -90 64 -90 125c0 81 54 132 131 151v119h94v-120c39 -8 88 -31 115 -55l-58 -102s-43 35 -95 35
c-15 0 -36 -4 -36 -20c0 -11 19 -16 33 -20c26 -8 46 -15 64 -22c63 -24 107 -65 107 -138z" />
    <glyph glyph-name="percent" unicode="%" horiz-adv-x="807" 
d="M389 596c0 -109 -74 -184 -172 -184c-106 0 -180 77 -180 186c0 98 78 180 176 180c99 0 176 -76 176 -182zM273 600c0 49 -18 90 -60 90c-43 0 -60 -47 -60 -92c0 -48 21 -95 65 -95s55 49 55 97zM687 766l-467 -766h-93l468 766h92zM769 170c0 -109 -74 -184 -172 -184
c-106 0 -180 77 -180 186c0 98 78 180 176 180c99 0 176 -76 176 -182zM653 174c0 49 -18 90 -60 90c-43 0 -60 -47 -60 -92c0 -48 21 -95 65 -95s55 49 55 97z" />
    <glyph glyph-name="ampersand" unicode="&#x26;" horiz-adv-x="816" 
d="M832 0h-241l-52 62s-103 -86 -237 -86c-158 0 -274 94 -274 234c0 110 81 175 182 211c0 0 -68 60 -68 160c0 137 116 211 240 211c126 0 246 -75 246 -212c0 -95 -63 -161 -150 -197c0 0 83 -87 96 -104c50 42 116 108 116 108l110 -118s-60 -58 -121 -102zM466 580
c0 36 -34 66 -71 66c-36 0 -71 -18 -71 -60c0 -45 40 -82 66 -102c56 31 76 53 76 96zM433 175c0 0 -100 113 -122 135c-50 -19 -82 -44 -82 -92c0 -63 49 -82 99 -82c44 0 105 39 105 39z" />
    <glyph glyph-name="quotesingle" unicode="'" horiz-adv-x="278" 
d="M227 766l-31 -367h-116l-28 367h175z" />
    <glyph glyph-name="parenleft" unicode="(" horiz-adv-x="300" 
d="M284 838c0 0 -125 -208 -125 -512c0 -208 39 -327 122 -500l-83 -54s-154 234 -154 542c0 312 146 574 146 574z" />
    <glyph glyph-name="parenright" unicode=")" horiz-adv-x="300" 
d="M266 346c0 -312 -146 -574 -146 -574l-94 50s125 208 125 512c0 208 -39 327 -122 500l83 54s154 -234 154 -542z" />
    <glyph glyph-name="asterisk" unicode="*" horiz-adv-x="397" 
d="M371 605l-107 -31l64 -93l-67 -47l-65 91l-71 -90l-66 50l71 89l-107 38l29 79l106 -40v115h83v-115l104 33z" />
    <glyph glyph-name="plus" unicode="+" horiz-adv-x="677" 
d="M647 238h-234v-238h-148v238h-235v147h235v238h148v-238h234v-147z" />
    <glyph glyph-name="comma" unicode="," horiz-adv-x="300" 
d="M302 175l-195 -348h-124l133 348h186z" />
    <glyph glyph-name="hyphen" unicode="-" horiz-adv-x="466" 
d="M415 257h-369v171h369v-171z" />
    <glyph glyph-name="period" unicode="." horiz-adv-x="268" 
d="M230 75c0 -54 -45 -99 -99 -99s-99 45 -99 99s45 99 99 99s99 -45 99 -99z" />
    <glyph glyph-name="slash" unicode="/" horiz-adv-x="317" 
d="M315 766l-163 -767h-150l163 767h150z" />
    <glyph glyph-name="zero" unicode="0" horiz-adv-x="793" 
d="M769 390c0 -245 -151 -418 -366 -418c-212 0 -374 166 -374 400c0 258 154 422 374 422c211 0 366 -167 366 -404zM571 384c0 145 -61 238 -176 238s-168 -97 -168 -242s63 -236 178 -236c113 0 166 97 166 240z" />
    <glyph glyph-name="one" unicode="1" horiz-adv-x="422" 
d="M346 0h-200v602h-110v164h310v-766z" />
    <glyph glyph-name="two" unicode="2" horiz-adv-x="697" 
d="M657 0h-622l332 383c31 35 70 94 70 149c0 53 -36 92 -94 92c-71 0 -94 -51 -94 -126h-198c2 173 104 296 300 296c158 0 286 -113 286 -262c0 -153 -118 -262 -236 -370h256v-162z" />
    <glyph glyph-name="three" unicode="3" horiz-adv-x="702" 
d="M662 222c0 -153 -148 -249 -303 -249c-163 0 -314 97 -314 277h198c0 -60 26 -114 110 -114c65 0 104 41 104 102c0 79 -59 109 -141 109h-38v129h35c76 0 118 15 118 88c0 51 -38 84 -84 84c-51 0 -88 -42 -88 -96h-180c0 146 127 242 268 242c134 0 268 -78 268 -217
c0 -66 -32 -122 -89 -151c58 -22 136 -79 136 -204z" />
    <glyph glyph-name="four" unicode="4" horiz-adv-x="695" 
d="M669 166h-102v-166h-192v166h-340v151l332 449h200v-454h102v-146zM380 310v238l-178 -238h178z" />
    <glyph glyph-name="five" unicode="5" horiz-adv-x="668" 
d="M628 257c0 -185 -161 -285 -315 -285c-109 0 -194 31 -273 78l30 167s100 -77 212 -77c90 0 144 47 144 120c0 84 -83 119 -181 119c-66 0 -152 -29 -152 -29l73 416h403v-160h-271l-13 -96s37 5 60 5c149 0 283 -92 283 -258z" />
    <glyph glyph-name="six" unicode="6" horiz-adv-x="729" 
d="M689 262c0 -194 -156 -289 -326 -289c-181 0 -323 107 -323 286c0 109 47 179 116 269l184 238h252l-229 -258s43 14 81 14c139 0 245 -121 245 -260zM487 258c0 68 -50 120 -126 120c-70 0 -124 -54 -124 -121s52 -120 124 -120c75 0 126 53 126 121z" />
    <glyph glyph-name="seven" unicode="7" horiz-adv-x="678" 
d="M705 766l-420 -766h-235l349 604h-322v162h628z" />
    <glyph glyph-name="eight" unicode="8" horiz-adv-x="711" 
d="M661 208c0 -151 -129 -236 -311 -236c-194 0 -300 95 -300 241c0 110 79 179 168 196v4c-30 0 -134 51 -134 178c0 130 124 202 277 202c140 0 259 -75 259 -203c0 -95 -50 -148 -128 -175l-1 -3s170 -30 170 -204zM440 580c0 49 -39 81 -88 81s-88 -37 -88 -84
c0 -53 39 -88 90 -88c55 0 86 35 86 91zM460 229c0 57 -43 105 -102 105c-61 0 -105 -49 -105 -109c0 -55 45 -100 101 -100c66 0 106 46 106 104z" />
    <glyph glyph-name="nine" unicode="9" horiz-adv-x="725" 
d="M685 517c0 -100 -53 -174 -116 -274l-154 -243h-242l208 283s-67 -29 -105 -29c-141 0 -236 107 -236 252c0 192 157 288 329 288c181 0 316 -98 316 -277zM486 515c0 67 -52 120 -124 120c-75 0 -126 -53 -126 -121s50 -120 126 -120c70 0 124 54 124 121z" />
    <glyph glyph-name="colon" unicode=":" horiz-adv-x="268" 
d="M230 527c0 -54 -45 -99 -99 -99s-99 45 -99 99s45 99 99 99s99 -45 99 -99zM230 75c0 -54 -45 -99 -99 -99s-99 45 -99 99s45 99 99 99s99 -45 99 -99z" />
    <glyph glyph-name="semicolon" unicode=";" horiz-adv-x="300" 
d="M300 527c0 -54 -45 -99 -99 -99s-99 45 -99 99s45 99 99 99s99 -45 99 -99zM294 175l-195 -348h-124l133 348h186z" />
    <glyph glyph-name="less" unicode="&#x3c;" 
d="M864 12l-792 298l792 292v-590z" />
    <glyph glyph-name="equal" unicode="=" horiz-adv-x="600" 
d="M572 323h-549v147h549v-147zM572 29h-549v147h549v-147z" />
    <glyph glyph-name="greater" unicode="&#x3e;" 
d="M914 310l-792 -298v590z" />
    <glyph glyph-name="question" unicode="?" horiz-adv-x="591" 
d="M566 548c0 -112 -73 -204 -195 -215v-89h-181v214h78c50 0 102 31 102 91c0 55 -38 77 -81 77c-39 0 -71 -20 -72 -78c0 0 -161 -1 -193 0c21 163 112 233 271 233c154 0 271 -94 271 -233zM388 75c0 -54 -45 -99 -99 -99s-99 45 -99 99s45 99 99 99s99 -45 99 -99z" />
    <glyph glyph-name="at" unicode="@" horiz-adv-x="1008" 
d="M984 312c0 -137 -77 -268 -226 -268c-99 0 -139 84 -139 84s-47 -62 -123 -62c-111 0 -197 80 -197 208c0 111 82 209 193 209c49 0 80 -16 115 -49v41h120v-282c0 -32 50 -39 83 -5c22 22 31 71 31 127c0 182 -128 294 -320 291c-202 -4 -324 -158 -324 -343
c0 -186 132 -329 322 -326c54 1 103 11 145 29v-137c-44 -12 -97 -20 -148 -21c-271 -4 -464 214 -464 457c0 260 194 463 470 468c272 5 462 -159 462 -421zM611 272c0 59 -41 99 -95 99c-57 0 -94 -43 -94 -95c0 -56 35 -101 91 -101c54 0 98 39 98 97z" />
    <glyph glyph-name="A" unicode="A" horiz-adv-x="842" 
d="M818 0h-216l-52 142h-265l-51 -142h-213l284 765l229 1zM498 296l-81 234l-82 -234h163z" />
    <glyph glyph-name="B" unicode="B" horiz-adv-x="710" 
d="M673 229c0 -164 -124 -230 -258 -230c-128 0 -330 1 -330 1v766h317c137 0 217 -77 217 -189c0 -75 -36 -130 -102 -163c69 -15 156 -62 156 -185zM425 548c0 56 -45 70 -89 70h-55v-147h59c44 0 85 17 85 77zM473 239c0 63 -52 82 -103 82h-89v-169h93c51 0 99 18 99 87
z" />
    <glyph glyph-name="C" unicode="C" horiz-adv-x="697" 
d="M640 532c-46 38 -97 67 -192 67c-130 0 -202 -95 -202 -225c0 -123 91 -205 212 -205c74 0 129 29 180 63v-201c-63 -28 -113 -51 -193 -51c-221 0 -401 160 -401 396c0 245 169 412 394 412c81 0 131 -10 202 -48v-208z" />
    <glyph glyph-name="D" unicode="D" horiz-adv-x="814" 
d="M769 392c0 -224 -149 -392 -362 -392h-322v766h320c206 0 364 -153 364 -374zM567 395c0 117 -78 204 -185 204h-94v-427h88c118 0 191 94 191 223z" />
    <glyph glyph-name="E" unicode="E" horiz-adv-x="612" 
d="M533 0h-448v766h444v-174h-244v-124h230v-170h-230v-128h248v-170z" />
    <glyph glyph-name="F" unicode="F" horiz-adv-x="571" 
d="M535 592h-250v-124h218v-170h-218v-298h-200v766h450v-174z" />
    <glyph glyph-name="G" unicode="G" horiz-adv-x="874" 
d="M836 394c0 -227 -105 -422 -392 -422c-244 0 -400 187 -400 410c0 235 175 412 398 412c154 0 267 -60 346 -192l-160 -88s-52 106 -188 106c-131 0 -190 -107 -190 -246c0 -130 60 -234 208 -234c85 0 163 65 170 136h-176v160h384v-42z" />
    <glyph glyph-name="H" unicode="H" horiz-adv-x="850" 
d="M765 0h-200v311h-280v-311h-200v766h200v-288h280v288h200v-766z" />
    <glyph glyph-name="I" unicode="I" horiz-adv-x="371" 
d="M285 0h-200v766h200v-766z" />
    <glyph glyph-name="J" unicode="J" horiz-adv-x="531" 
d="M445 253c0 -166 -83 -269 -238 -269c-84 0 -143 29 -228 110l120 116s40 -53 86 -53c49 0 60 24 60 99v510h200v-513z" />
    <glyph glyph-name="K" unicode="K" horiz-adv-x="807" 
d="M799 0h-258l-256 335v-335h-200v766h200v-326l224 326h238l-274 -362z" />
    <glyph glyph-name="L" unicode="L" horiz-adv-x="565" 
d="M527 0h-442v766h200v-592h242v-174z" />
    <glyph glyph-name="M" unicode="M" horiz-adv-x="996" 
d="M975 0h-204l-60 440l-174 -440h-94l-172 442l-54 -442h-202l120 766h194l162 -418l160 418h202z" />
    <glyph glyph-name="N" unicode="N" horiz-adv-x="923" 
d="M837 0h-200l-352 457v-457h-200v766h200l358 -454v454h194v-766z" />
    <glyph glyph-name="O" unicode="O" horiz-adv-x="934" 
d="M889 391c0 -248 -188 -419 -423 -419c-248 0 -422 176 -422 412c0 245 190 410 423 410c240 0 422 -177 422 -403zM687 387c0 123 -94 219 -221 219c-128 0 -220 -95 -220 -225s89 -222 219 -222s222 94 222 228z" />
    <glyph glyph-name="P" unicode="P" horiz-adv-x="702" 
d="M668 509c0 -156 -105 -242 -235 -242h-148v-267h-200v766h342c136 0 241 -93 241 -257zM469 517c0 76 -50 98 -116 98h-72v-201h70c61 0 118 19 118 103z" />
    <glyph glyph-name="Q" unicode="Q" horiz-adv-x="934" 
d="M951 -44h-216s-49 60 -59 71c-57 -28 -130 -55 -210 -55c-248 0 -422 176 -422 412c0 245 190 410 423 410c240 0 427 -177 427 -403c0 -99 -23 -178 -95 -265c22 -27 152 -170 152 -170zM692 389c0 123 -98 219 -225 219c-128 0 -225 -97 -225 -227s93 -222 223 -222
c26 0 52 4 74 13c-27 27 -131 141 -131 141h199s36 -40 47 -53c26 40 38 84 38 129z" />
    <glyph glyph-name="R" unicode="R" horiz-adv-x="729" 
d="M725 0h-239s-139 235 -161 270h-40v-270h-200v766h305c136 0 262 -77 262 -240c0 -105 -46 -176 -132 -209c20 -29 205 -317 205 -317zM448 517c0 65 -35 96 -101 96h-66v-192h64c55 0 103 23 103 96z" />
    <glyph glyph-name="S" unicode="S" horiz-adv-x="617" 
d="M585 222c0 -164 -152 -250 -306 -250c-108 0 -184 45 -264 95c0 0 63 126 80 155c37 -33 107 -74 180 -74c56 0 111 19 111 60c0 32 -5 47 -80 75c-24 9 -81 31 -114 46c-97 44 -150 113 -150 221c0 153 127 244 263 244c99 0 190 -46 245 -82l-78 -150s-80 61 -154 61
c-49 0 -77 -27 -77 -67c0 -41 47 -55 87 -70c24 -9 63 -25 83 -33c115 -46 174 -116 174 -231z" />
    <glyph glyph-name="T" unicode="T" horiz-adv-x="546" 
d="M535 583h-158v-584h-208v584h-158v182h524v-182z" />
    <glyph glyph-name="U" unicode="U" horiz-adv-x="847" 
d="M761 276c0 -175 -119 -298 -342 -298c-169 0 -334 88 -334 276v512h200v-470c0 -102 62 -138 138 -138c73 0 136 39 136 128v480h202v-490z" />
    <glyph glyph-name="V" unicode="V" horiz-adv-x="857" 
d="M839 766l-318 -766h-188l-318 766h222l194 -500l190 500h218z" />
    <glyph glyph-name="W" unicode="W" horiz-adv-x="1214" 
d="M1199 766l-246 -766h-206l-142 458l-137 -458h-205l-248 766h204l154 -508l162 508h144l164 -506l154 506h202z" />
    <glyph glyph-name="X" unicode="X" horiz-adv-x="852" 
d="M834 0h-250l-162 248l-162 -248h-242l288 406l-260 360h248l130 -200l130 200h238l-250 -354z" />
    <glyph glyph-name="Y" unicode="Y" horiz-adv-x="802" 
d="M789 766l-284 -426v-340h-196v336l-294 430h248l144 -236l142 236h240z" />
    <glyph glyph-name="Z" unicode="Z" horiz-adv-x="704" 
d="M674 766l-346 -600h334v-167l-652 1l344 594h-314v172h634z" />
    <glyph glyph-name="bracketleft" unicode="[" horiz-adv-x="300" 
d="M289 -100h-206v966h206v-116h-90v-734h90v-116z" />
    <glyph glyph-name="backslash" unicode="\" horiz-adv-x="321" 
d="M316 -1h-150l-163 767h150z" />
    <glyph glyph-name="bracketright" unicode="]" horiz-adv-x="300" 
d="M225 -100h-206v116h90v734h-90v116h206v-966z" />
    <glyph glyph-name="asciicircum" unicode="^" horiz-adv-x="600" 
d="M551 364c0 -84 -54 -137 -120 -118c16 -65 -49 -139 -128 -139c-89 0 -144 76 -124 131c-61 -13 -125 36 -125 118c0 86 68 146 126 118c-26 55 35 131 123 131c76 0 136 -59 119 -121c61 22 129 -34 129 -120zM485 365c0 38 -26 70 -64 70c-27 0 -48 -8 -63 -30l-6 3
s24 34 24 58c0 41 -35 72 -76 72c-39 0 -71 -35 -71 -74c0 -26 7 -46 27 -62l-4 -5s-36 36 -64 36c-41 0 -68 -38 -68 -79c0 -39 32 -71 71 -71c25 0 42 7 58 26l6 -4s-26 -34 -26 -59c0 -41 32 -75 73 -77c43 -2 81 32 81 75c0 25 -5 45 -18 64l5 5s24 -21 56 -21
c35 0 59 39 59 73z" />
    <glyph glyph-name="underscore" unicode="_" horiz-adv-x="570" 
d="M570 -136h-570v46h570v-46z" />
    <glyph glyph-name="grave" unicode="`" horiz-adv-x="324" 
d="M314 716l-31 -57l-271 119l56 94z" />
    <glyph glyph-name="a" unicode="a" horiz-adv-x="759" 
d="M694 0h-187v60s-67 -75 -184 -75c-171 0 -288 122 -288 319c0 171 127 322 298 322c75 0 122 -25 177 -75v63h184v-614zM516 302c0 90 -64 152 -146 152c-89 0 -146 -66 -146 -147c0 -85 54 -155 140 -155c83 0 152 61 152 150z" />
    <glyph glyph-name="b" unicode="b" horiz-adv-x="762" 
d="M727 306c0 -171 -109 -321 -282 -321c-81 0 -141 23 -198 79v-64h-182v766h185v-210s82 70 189 70c181 0 288 -153 288 -320zM542 310c0 78 -61 144 -145 144c-87 0 -152 -59 -152 -148c0 -95 63 -156 160 -156c91 0 137 73 137 160z" />
    <glyph glyph-name="c" unicode="c" horiz-adv-x="540" 
d="M501 20c0 0 -90 -35 -149 -35c-190 0 -317 136 -317 316c0 178 130 325 320 325c57 0 92 -7 143 -30v-193c-21 22 -81 50 -136 50c-81 0 -141 -75 -141 -157c0 -83 67 -139 149 -139c52 0 112 26 131 41v-178z" />
    <glyph glyph-name="d" unicode="d" horiz-adv-x="758" 
d="M693 0h-182v64c-57 -56 -116 -79 -197 -79c-173 0 -279 146 -279 317c0 167 114 324 295 324c107 0 178 -70 178 -70v210h185v-766zM517 303c0 86 -58 150 -145 150c-94 0 -148 -70 -148 -148c0 -85 57 -154 142 -154c97 0 151 67 151 152z" />
    <glyph glyph-name="e" unicode="e" horiz-adv-x="686" 
d="M651 253h-432c16 -73 74 -108 144 -108c61 0 101 43 133 85c0 0 111 -64 145 -85c-54 -96 -158 -160 -287 -160c-189 0 -319 115 -319 321c0 186 133 320 314 320c177 0 302 -117 302 -336c0 -15 1 -23 0 -37zM459 383c-22 59 -54 87 -112 87c-63 0 -98 -30 -121 -87h233
z" />
    <glyph glyph-name="f" unicode="f" horiz-adv-x="387" 
d="M398 664c0 0 -39 9 -62 9c-43 0 -59 -13 -59 -59h101v-162h-100v-452h-183v452h-65v162h63v31c0 136 86 189 204 189c23 0 63 -4 101 -13v-157z" />
    <glyph glyph-name="g" unicode="g" horiz-adv-x="730" 
d="M665 73c0 -190 -143 -289 -315 -289c-151 0 -283 76 -303 214h209c26 -42 52 -50 98 -50c65 0 125 30 125 97c0 16 1 30 -1 46c-36 -32 -103 -71 -176 -71c-159 0 -267 132 -267 299c0 166 106 307 268 307c78 0 131 -25 184 -81v69h178v-541zM488 319
c0 82 -46 148 -142 148c-87 0 -130 -71 -130 -147c0 -79 47 -144 129 -144c93 0 143 74 143 143z" />
    <glyph glyph-name="h" unicode="h" horiz-adv-x="716" 
d="M651 0h-192v360c0 51 -14 99 -96 99c-60 0 -110 -49 -110 -108v-351h-188v766h186v-232s59 92 179 92c122 0 221 -88 221 -204v-422z" />
    <glyph glyph-name="i" unicode="i" horiz-adv-x="316" 
d="M272 772c0 -63 -51 -114 -115 -114c-61 0 -110 49 -110 112c0 62 50 113 112 113s113 -49 113 -111zM251 0h-186v614h186v-614z" />
    <glyph glyph-name="j" unicode="j" horiz-adv-x="316" 
d="M272 772c0 -63 -51 -114 -115 -114c-61 0 -110 49 -110 112c0 62 50 113 112 113s113 -49 113 -111zM251 -200h-186v814h186v-814z" />
    <glyph glyph-name="k" unicode="k" horiz-adv-x="657" 
d="M669 0h-235s-170 230 -183 248v-248h-186v766h186v-373l175 221h225l-242 -283z" />
    <glyph glyph-name="l" unicode="l" horiz-adv-x="316" 
d="M251 0h-186v766h186v-766z" />
    <glyph glyph-name="m" unicode="m" horiz-adv-x="1057" 
d="M992 -2h-187v360c0 69 -24 97 -84 97s-100 -46 -100 -120v-335h-189v360c0 67 -22 95 -80 95c-60 0 -100 -43 -100 -119v-336h-187v614h183v-80s69 92 173 92c81 0 143 -41 173 -98c49 51 89 98 201 98c122 0 197 -90 197 -206v-422z" />
    <glyph glyph-name="n" unicode="n" horiz-adv-x="716" 
d="M654 0h-192v360c0 51 -14 99 -96 99c-60 0 -110 -49 -110 -108v-351h-188v614h186v-80s59 92 179 92c122 0 221 -88 221 -204v-422z" />
    <glyph glyph-name="o" unicode="o" horiz-adv-x="737" 
d="M702 307c0 -187 -135 -328 -335 -328c-188 0 -332 154 -332 325c0 184 147 322 336 322c186 0 331 -134 331 -319zM517 310c0 79 -60 141 -147 141c-90 0 -149 -66 -149 -150c0 -82 63 -146 148 -146c92 0 148 59 148 155z" />
    <glyph glyph-name="p" unicode="p" horiz-adv-x="758" 
d="M723 309c0 -167 -111 -324 -292 -324c-107 0 -181 70 -181 70v-255h-185v814h182v-67c57 56 116 79 197 79c173 0 279 -146 279 -317zM534 306c0 86 -55 154 -142 154c-94 0 -152 -66 -152 -155s66 -149 153 -149c84 0 141 72 141 150z" />
    <glyph glyph-name="q" unicode="q" horiz-adv-x="758" 
d="M693 -200h-185v258s-77 -74 -184 -74c-181 0 -289 148 -289 321c0 171 118 321 291 321c81 0 153 -40 185 -85v73h182v-814zM511 300c0 89 -51 154 -149 154c-87 0 -144 -68 -144 -154c0 -78 57 -148 141 -148c87 0 152 59 152 148z" />
    <glyph glyph-name="r" unicode="r" horiz-adv-x="443" 
d="M434 434c0 0 -23 12 -65 12c-72 0 -116 -44 -116 -163v-283h-188v614h181v-97c15 46 72 109 146 109h42v-192z" />
    <glyph glyph-name="s" unicode="s" horiz-adv-x="519" 
d="M488 189c0 -133 -116 -204 -246 -204c-103 0 -179 38 -227 128l143 72s31 -54 86 -54c30 0 66 14 66 43c0 76 -275 36 -275 252c0 119 99 200 235 200c88 0 163 -49 201 -135l-141 -62s-22 48 -76 48c-30 0 -49 -13 -49 -37c0 -69 283 -41 283 -251z" />
    <glyph glyph-name="t" unicode="t" horiz-adv-x="382" 
d="M377 444h-99v-444h-187v445h-61v169h61v152h187v-152h99v-170z" />
    <glyph glyph-name="u" unicode="u" horiz-adv-x="707" 
d="M642 250c0 -171 -111 -265 -288 -265c-176 0 -289 102 -289 272v357h186v-352c0 -67 42 -106 105 -106c67 0 104 39 104 101v357h182v-364z" />
    <glyph glyph-name="v" unicode="v" horiz-adv-x="682" 
d="M673 614l-241 -614h-166l-257 614h208l134 -359l126 359h196z" />
    <glyph glyph-name="w" unicode="w" horiz-adv-x="1025" 
d="M1018 614l-231 -614h-161l-114 330l-110 -330h-161l-234 614h196l122 -340l112 340h149l118 -342l121 342h193z" />
    <glyph glyph-name="x" unicode="x" horiz-adv-x="717" 
d="M709 0h-231l-127 187l-129 -187h-218l232 314l-223 300h227l111 -163l109 163h219l-216 -292z" />
    <glyph glyph-name="y" unicode="y" horiz-adv-x="686" 
d="M672 614l-357 -831h-197l138 299l-247 532h207l134 -317l129 317h193z" />
    <glyph glyph-name="z" unicode="z" horiz-adv-x="602" 
d="M584 614l-253 -450h241v-164h-543l255 449h-216v165h516z" />
    <glyph glyph-name="bar" unicode="|" horiz-adv-x="265" 
d="M168 -145h-72v916h72v-916z" />
    <glyph glyph-name="Adieresis" unicode="&#xc4;" horiz-adv-x="842" 
d="M818 0h-216l-52 142h-265l-51 -142h-213l284 765l229 1zM498 296l-81 234l-82 -234h163zM564 854h-88v133h88v-133zM354 854h-87v133h87v-133z" />
    <glyph glyph-name="Aring" unicode="&#xc5;" horiz-adv-x="842" 
d="M818 0h-216l-52 142h-265l-51 -142h-213l284 765l229 1zM498 296l-81 234l-82 -234h163zM529 912c0 -62 -51 -112 -113 -112s-113 50 -113 112s51 113 113 113s113 -51 113 -113zM489 912c0 41 -33 74 -74 74s-74 -33 -74 -74s33 -74 74 -74s74 33 74 74z" />
    <glyph glyph-name="Ccedilla" unicode="&#xc7;" horiz-adv-x="682" 
d="M634 532c-46 38 -97 67 -192 67c-130 0 -202 -95 -202 -225c0 -123 91 -205 212 -205c74 0 129 29 180 63v-201c-55 -24 -113 -50 -174 -51c-4 -13 -15 -39 -15 -39c18 0 94 -1 94 -74c0 -53 -65 -92 -124 -92c-63 0 -72 8 -106 19l22 47c20 -7 41 -16 63 -16
c36 0 55 15 55 37c0 26 -25 28 -48 28c-10 0 -19 -4 -29 -6l-9 9s27 70 35 89c-196 17 -358 166 -358 394c0 245 169 412 394 412c81 0 131 -10 202 -48v-208z" />
    <glyph glyph-name="Eacute" unicode="&#xc9;" horiz-adv-x="612" 
d="M533 0h-448v766h444v-174h-244v-124h230v-170h-230v-128h248v-170zM487 940l-271 -119l-31 57l246 156z" />
    <glyph glyph-name="Ntilde" unicode="&#xd1;" horiz-adv-x="923" 
d="M837 0h-200l-352 457v-457h-200v766h200l358 -454v454h194v-766zM708 928c0 0 -74 -70 -145 -70c-75 0 -108 49 -179 49c-63 0 -101 -50 -101 -50l-62 40s62 91 162 91c80 0 108 -43 174 -46c33 -1 63 16 95 39z" />
    <glyph glyph-name="Odieresis" unicode="&#xd6;" horiz-adv-x="934" 
d="M889 391c0 -248 -188 -419 -423 -419c-248 0 -422 176 -422 412c0 245 190 410 423 410c240 0 422 -177 422 -403zM687 387c0 123 -94 219 -221 219c-128 0 -220 -95 -220 -225s89 -222 219 -222s222 94 222 228zM602 854h-88v133h88v-133zM392 854h-87v133h87v-133z" />
    <glyph glyph-name="Udieresis" unicode="&#xdc;" horiz-adv-x="847" 
d="M761 276c0 -175 -119 -298 -342 -298c-169 0 -334 88 -334 276v512h200v-470c0 -102 62 -138 138 -138c73 0 136 39 136 128v480h202v-490zM572 854h-88v133h88v-133zM362 854h-87v133h87v-133z" />
    <glyph glyph-name="aacute" unicode="&#xe1;" horiz-adv-x="759" 
d="M694 0h-187v60s-67 -75 -184 -75c-171 0 -288 122 -288 319c0 171 127 322 298 322c75 0 122 -25 177 -75v63h184v-614zM516 302c0 90 -64 152 -146 152c-89 0 -146 -66 -146 -147c0 -85 54 -155 140 -155c83 0 152 61 152 150zM637 778l-271 -119l-31 57l246 156z" />
    <glyph glyph-name="agrave" unicode="&#xe0;" horiz-adv-x="759" 
d="M694 0h-187v60s-67 -75 -184 -75c-171 0 -288 122 -288 319c0 171 127 322 298 322c75 0 122 -25 177 -75v63h184v-614zM516 302c0 90 -64 152 -146 152c-89 0 -146 -66 -146 -147c0 -85 54 -155 140 -155c83 0 152 61 152 150zM402 716l-31 -57l-271 119l56 94z" />
    <glyph glyph-name="acircumflex" unicode="&#xe2;" horiz-adv-x="759" 
d="M694 0h-187v60s-67 -75 -184 -75c-171 0 -288 122 -288 319c0 171 127 322 298 322c75 0 122 -25 177 -75v63h184v-614zM516 302c0 90 -64 152 -146 152c-89 0 -146 -66 -146 -147c0 -85 54 -155 140 -155c83 0 152 61 152 150zM650 659h-122l-141 90l-128 -90h-122
l249 213z" />
    <glyph glyph-name="adieresis" unicode="&#xe4;" horiz-adv-x="759" 
d="M694 0h-187v60s-67 -75 -184 -75c-171 0 -288 122 -288 319c0 171 127 322 298 322c75 0 122 -25 177 -75v63h184v-614zM516 302c0 90 -64 152 -146 152c-89 0 -146 -66 -146 -147c0 -85 54 -155 140 -155c83 0 152 61 152 150zM512 660h-88v133h88v-133zM302 660h-87
v133h87v-133z" />
    <glyph glyph-name="atilde" unicode="&#xe3;" horiz-adv-x="759" 
d="M694 0h-187v60s-67 -75 -184 -75c-171 0 -288 122 -288 319c0 171 127 322 298 322c75 0 122 -25 177 -75v63h184v-614zM516 302c0 90 -64 152 -146 152c-89 0 -146 -66 -146 -147c0 -85 54 -155 140 -155c83 0 152 61 152 150zM622 740c0 0 -74 -70 -145 -70
c-75 0 -108 49 -179 49c-63 0 -101 -50 -101 -50l-62 40s62 91 162 91c80 0 108 -43 174 -46c33 -1 63 16 95 39z" />
    <glyph glyph-name="aring" unicode="&#xe5;" horiz-adv-x="759" 
d="M694 0h-187v60s-67 -75 -184 -75c-171 0 -288 122 -288 319c0 171 127 322 298 322c75 0 122 -25 177 -75v63h184v-614zM516 302c0 90 -64 152 -146 152c-89 0 -146 -66 -146 -147c0 -85 54 -155 140 -155c83 0 152 61 152 150zM465 772c0 -62 -51 -112 -113 -112
s-113 50 -113 112s51 113 113 113s113 -51 113 -113zM425 772c0 41 -33 74 -74 74s-74 -33 -74 -74s33 -74 74 -74s74 33 74 74z" />
    <glyph glyph-name="ccedilla" unicode="&#xe7;" horiz-adv-x="540" 
d="M494 7c0 0 -81 -29 -132 -34c-5 -13 -13 -32 -13 -32c18 0 94 -1 94 -74c0 -53 -65 -92 -124 -92c-63 0 -72 8 -106 19l17 47c20 -7 46 -16 68 -16c36 0 55 15 55 37c0 26 -25 28 -48 28c-10 0 -19 -4 -29 -6l-9 9s24 60 33 82c-159 21 -272 152 -272 326
c0 178 130 325 320 325c57 0 92 -7 143 -30v-193c-21 22 -81 50 -136 50c-81 0 -141 -75 -141 -157c0 -83 67 -152 149 -152c52 0 112 26 131 41v-178z" />
    <glyph glyph-name="eacute" unicode="&#xe9;" horiz-adv-x="686" 
d="M651 253h-432c16 -73 74 -108 144 -108c61 0 101 43 133 85c0 0 111 -64 145 -85c-54 -96 -158 -160 -287 -160c-189 0 -319 115 -319 321c0 186 133 320 314 320c177 0 302 -117 302 -336c0 -15 1 -23 0 -37zM459 383c-22 59 -54 87 -112 87c-63 0 -98 -30 -121 -87h233
zM561 778l-271 -119l-31 57l246 156z" />
    <glyph glyph-name="egrave" unicode="&#xe8;" horiz-adv-x="686" 
d="M651 253h-432c16 -73 74 -108 144 -108c61 0 101 43 133 85c0 0 111 -64 145 -85c-54 -96 -158 -160 -287 -160c-189 0 -319 115 -319 321c0 186 133 320 314 320c177 0 302 -117 302 -336c0 -15 1 -23 0 -37zM459 383c-22 59 -54 87 -112 87c-63 0 -98 -30 -121 -87h233
zM444 716l-31 -57l-271 119l56 94z" />
    <glyph glyph-name="ecircumflex" unicode="&#xea;" horiz-adv-x="686" 
d="M651 253h-432c16 -73 74 -108 144 -108c61 0 101 43 133 85c0 0 111 -64 145 -85c-54 -96 -158 -160 -287 -160c-189 0 -319 115 -319 321c0 186 133 320 314 320c177 0 302 -117 302 -336c0 -15 1 -23 0 -37zM459 383c-22 59 -54 87 -112 87c-63 0 -98 -30 -121 -87h233
zM612 659h-122l-141 90l-128 -90h-122l249 213z" />
    <glyph glyph-name="edieresis" unicode="&#xeb;" horiz-adv-x="686" 
d="M651 253h-432c16 -73 74 -108 144 -108c61 0 101 43 133 85c0 0 111 -64 145 -85c-54 -96 -158 -160 -287 -160c-189 0 -319 115 -319 321c0 186 133 320 314 320c177 0 302 -117 302 -336c0 -15 1 -23 0 -37zM459 383c-22 59 -54 87 -112 87c-63 0 -98 -30 -121 -87h233
zM500 660h-88v133h88v-133zM290 660h-87v133h87v-133z" />
    <glyph glyph-name="iacute" unicode="&#xed;" horiz-adv-x="316" 
d="M387 778l-271 -119l-31 57l246 156zM251 0h-186v614h186v-614z" />
    <glyph glyph-name="igrave" unicode="&#xec;" horiz-adv-x="316" 
d="M262 716l-31 -57l-271 119l56 94zM251 0h-186v614h186v-614z" />
    <glyph glyph-name="icircumflex" unicode="&#xee;" horiz-adv-x="316" 
d="M414 659h-122l-141 90l-128 -90h-122l249 213zM251 0h-186v614h186v-614z" />
    <glyph glyph-name="idieresis" unicode="&#xef;" horiz-adv-x="316" 
d="M305 660h-88v133h88v-133zM95 660h-87v133h87v-133zM251 0h-186v614h186v-614z" />
    <glyph glyph-name="ntilde" unicode="&#xf1;" horiz-adv-x="716" 
d="M654 0h-192v360c0 51 -14 99 -96 99c-60 0 -110 -49 -110 -108v-351h-188v614h186v-80s59 92 179 92c122 0 221 -88 221 -204v-422zM608 740c0 0 -74 -70 -145 -70c-75 0 -108 49 -179 49c-63 0 -101 -50 -101 -50l-62 40s62 91 162 91c80 0 108 -43 174 -46
c33 -1 63 16 95 39z" />
    <glyph glyph-name="oacute" unicode="&#xf3;" horiz-adv-x="737" 
d="M702 307c0 -187 -135 -328 -335 -328c-188 0 -332 154 -332 325c0 184 147 322 336 322c186 0 331 -134 331 -319zM517 310c0 79 -60 141 -147 141c-90 0 -149 -66 -149 -150c0 -82 63 -146 148 -146c92 0 148 59 148 155zM605 778l-271 -119l-31 57l246 156z" />
    <glyph glyph-name="ograve" unicode="&#xf2;" horiz-adv-x="737" 
d="M702 307c0 -187 -135 -328 -335 -328c-188 0 -332 154 -332 325c0 184 147 322 336 322c186 0 331 -134 331 -319zM517 310c0 79 -60 141 -147 141c-90 0 -149 -66 -149 -150c0 -82 63 -146 148 -146c92 0 148 59 148 155zM444 716l-31 -57l-271 119l56 94z" />
    <glyph glyph-name="ocircumflex" unicode="&#xf4;" horiz-adv-x="737" 
d="M702 307c0 -187 -135 -328 -335 -328c-188 0 -332 154 -332 325c0 184 147 322 336 322c186 0 331 -134 331 -319zM517 310c0 79 -60 141 -147 141c-90 0 -149 -66 -149 -150c0 -82 63 -146 148 -146c92 0 148 59 148 155zM620 659h-122l-141 90l-128 -90h-122l249 213z
" />
    <glyph glyph-name="odieresis" unicode="&#xf6;" horiz-adv-x="737" 
d="M702 307c0 -187 -135 -328 -335 -328c-188 0 -332 154 -332 325c0 184 147 322 336 322c186 0 331 -134 331 -319zM517 310c0 79 -60 141 -147 141c-90 0 -149 -66 -149 -150c0 -82 63 -146 148 -146c92 0 148 59 148 155zM514 660h-88v133h88v-133zM304 660h-87v133h87
v-133z" />
    <glyph glyph-name="otilde" unicode="&#xf5;" horiz-adv-x="737" 
d="M702 307c0 -187 -135 -328 -335 -328c-188 0 -332 154 -332 325c0 184 147 322 336 322c186 0 331 -134 331 -319zM517 310c0 79 -60 141 -147 141c-90 0 -149 -66 -149 -150c0 -82 63 -146 148 -146c92 0 148 59 148 155zM616 740c0 0 -74 -70 -145 -70
c-75 0 -108 49 -179 49c-63 0 -101 -50 -101 -50l-62 40s62 91 162 91c80 0 108 -43 174 -46c33 -1 63 16 95 39z" />
    <glyph glyph-name="uacute" unicode="&#xfa;" horiz-adv-x="707" 
d="M642 250c0 -171 -111 -265 -288 -265c-176 0 -289 102 -289 272v357h186v-352c0 -67 42 -106 105 -106c67 0 104 39 104 101v357h182v-364zM583 778l-271 -119l-31 57l246 156z" />
    <glyph glyph-name="ugrave" unicode="&#xf9;" horiz-adv-x="707" 
d="M642 250c0 -171 -111 -265 -288 -265c-176 0 -289 102 -289 272v357h186v-352c0 -67 42 -106 105 -106c67 0 104 39 104 101v357h182v-364zM414 716l-31 -57l-271 119l56 94z" />
    <glyph glyph-name="ucircumflex" unicode="&#xfb;" horiz-adv-x="707" 
d="M642 250c0 -171 -111 -265 -288 -265c-176 0 -289 102 -289 272v357h186v-352c0 -67 42 -106 105 -106c67 0 104 39 104 101v357h182v-364zM616 659h-122l-141 90l-128 -90h-122l249 213z" />
    <glyph glyph-name="udieresis" unicode="&#xfc;" horiz-adv-x="707" 
d="M642 250c0 -171 -111 -265 -288 -265c-176 0 -289 102 -289 272v357h186v-352c0 -67 42 -106 105 -106c67 0 104 39 104 101v357h182v-364zM508 660h-88v133h88v-133zM298 660h-87v133h87v-133z" />
    <glyph glyph-name="dagger" unicode="&#x2020;" horiz-adv-x="793" 
d="M580 609c0 -102 -83 -185 -185 -185s-185 83 -185 185s83 185 185 185s185 -83 185 -185zM508 609c0 62 -51 113 -113 113c-60 0 -113 -49 -113 -113c0 -62 51 -113 113 -113s113 51 113 113z" />
    <glyph glyph-name="cent" unicode="&#xa2;" horiz-adv-x="418" 
d="M349 192c0 0 -23 -17 -60 -22v-170h-84v177c-50 5 -155 76 -155 224c0 105 67 200 156 221v139h82v-136c40 -7 61 -23 61 -23v-139c-10 14 -43 34 -74 34c-55 0 -70 -50 -70 -96c0 -63 32 -98 72 -98c31 0 61 19 72 31v-142z" />
    <glyph glyph-name="sterling" unicode="&#xa3;" horiz-adv-x="641" 
d="M633 120c-53 -81 -131 -132 -216 -132c-79 0 -143 32 -231 32c-71 0 -102 -11 -137 -26v146c66 10 103 80 103 151v23h-133v117h110c-11 19 -33 71 -33 132c0 121 97 221 218 221c91 0 164 -47 207 -110l-106 -86s-40 59 -93 59c-60 0 -81 -41 -81 -86
c0 -51 22 -84 41 -129h138v-116h-110v-24c1 -62 -32 -138 -51 -146v-3s16 2 28 2c47 0 74 -19 119 -19c55 0 100 32 125 70z" />
    <glyph glyph-name="bullet" unicode="&#x2022;" horiz-adv-x="500" 
d="M432 357c0 -101 -82 -183 -183 -183s-183 82 -183 183s82 183 183 183s183 -82 183 -183z" />
    <glyph glyph-name="paragraph" unicode="&#xb6;" horiz-adv-x="500" 
d="M466 736h-69v-879h-32v879h-57s1 -879 0 -879h-34v444c-122 1 -220 97 -220 222c0 166 130 243 310 243h102v-30z" />
    <glyph glyph-name="germandbls" unicode="&#xdf;" horiz-adv-x="696" 
d="M661 287c0 -166 -124 -288 -355 -288c-1 18 0 156 0 156c113 0 158 40 158 119c0 77 -56 109 -158 108v147c64 0 89 29 89 87c0 56 -36 67 -73 67c-56 0 -72 -26 -72 -63v-620h-182v616c0 139 33 218 280 218c137 0 241 -77 241 -189c0 -75 -18 -140 -84 -173
c65 -13 156 -62 156 -185z" />
    <glyph glyph-name="registered" unicode="&#xae;" horiz-adv-x="500" 
d="M491 561c0 -131 -102 -241 -233 -241s-241 102 -241 233s105 241 236 241c130 0 238 -103 238 -233zM458 557c0 112 -91 203 -203 203s-203 -91 -203 -203s91 -203 203 -203s203 91 203 203zM353 436h-42l-40 102h-60v-102h-37v248h93c52 0 86 -19 86 -74
c0 -41 -18 -58 -46 -69zM317 612c0 24 -17 37 -49 37h-58v-78h54c42 0 53 11 53 41z" />
    <glyph glyph-name="copyright" unicode="&#xa9;" horiz-adv-x="500" 
d="M491 561c0 -131 -102 -241 -233 -241s-241 102 -241 233s105 241 236 241c130 0 238 -103 238 -233zM458 557c0 112 -91 203 -203 203s-203 -91 -203 -203s91 -203 203 -203s203 91 203 203zM362 463c-25 -26 -61 -40 -105 -40c-71 0 -126 62 -126 133s51 135 122 135
c44 0 79 -12 106 -38l-23 -23c-20 19 -48 29 -83 29c-53 0 -90 -52 -90 -107c0 -53 42 -99 95 -99c34 0 62 11 81 32z" />
    <glyph glyph-name="acute" unicode="&#xb4;" horiz-adv-x="316" 
d="M309 778l-271 -119l-31 57l246 156z" />
    <glyph glyph-name="dieresis" unicode="&#xa8;" horiz-adv-x="338" 
d="M312 660h-88v133h88v-133zM102 660h-87v133h87v-133z" />
    <glyph glyph-name="notequal" unicode="&#x2260;" horiz-adv-x="600" 
d="M548 130h-326v-103l-188 272l188 272v-106h326v-335zM517 161v273h-320v53l-129 -187l129 -190v51h320z" />
    <glyph glyph-name="AE" unicode="&#xc6;" horiz-adv-x="1004" 
d="M940 0h-450v142h-209l-59 -142h-209l318 766h605v-174h-244v-124h230v-170h-230v-128h248v-170zM490 296v351l-146 -351h146z" />
    <glyph glyph-name="Oslash" unicode="&#xd8;" horiz-adv-x="934" 
d="M902 794c0 0 -96 -106 -119 -131c63 -62 106 -161 106 -272c0 -248 -188 -419 -423 -419c-99 0 -186 28 -246 70c-10 -11 -39 -42 -39 -42h-151s96 104 107 117c-60 74 -93 165 -93 267c0 245 190 410 423 410c80 0 155 -20 229 -62c15 17 56 62 56 62h150zM687 387
c0 45 -12 87 -38 128c-13 -15 -284 -313 -299 -329c35 -17 73 -27 115 -27c130 0 222 94 222 228zM562 585c-29 14 -61 21 -96 21c-128 0 -220 -95 -220 -225c0 -39 8 -75 27 -114c13 13 281 308 289 318z" />
    <glyph glyph-name="infinity" unicode="&#x221e;" horiz-adv-x="500" 
d="M422 176h-346v341h346v-341z" />
    <glyph glyph-name="plusminus" unicode="&#xb1;" horiz-adv-x="600" 
d="M574 176h-200v-178h-148v178h-201v147h201v204h148v-204h200v-147zM574 -200h-549v147h549v-147z" />
    <glyph glyph-name="ordfeminine" unicode="&#xaa;" horiz-adv-x="511" 
d="M458 418h-118v36s-42 -45 -116 -45c-107 0 -181 74 -181 192c0 102 80 193 188 193c47 0 77 -15 111 -45v38h116v-369zM346 600c0 54 -40 91 -92 91c-56 0 -92 -40 -92 -88c0 -49 33 -93 88 -93c52 0 96 36 96 90z" />
    <glyph glyph-name="ordmasculine" unicode="&#xba;" horiz-adv-x="492" 
d="M458 603c0 -117 -85 -200 -211 -200c-119 0 -208 88 -208 198s91 193 210 193c117 0 209 -80 209 -191zM341 604c0 48 -38 85 -92 85c-57 0 -94 -40 -94 -90c0 -49 39 -91 93 -91c58 0 93 39 93 96z" />
    <glyph glyph-name="ae" unicode="&#xe6;" horiz-adv-x="1160" 
d="M1130 253h-432c16 -73 74 -109 144 -109c61 0 101 43 133 85c0 0 111 -64 145 -85c-57 -95 -158 -159 -287 -159c-121 0 -192 49 -192 49v-34h-156v41s-65 -56 -162 -56c-171 0 -288 122 -288 319c0 171 127 322 298 322c42 0 102 -11 152 -54v42h157v-46s66 58 186 58
c177 0 302 -117 302 -336c0 -15 1 -23 0 -37zM938 383c-22 59 -54 87 -112 87c-63 0 -98 -30 -121 -87h233zM516 302c0 90 -64 152 -146 152c-89 0 -146 -66 -146 -147s53 -155 140 -155c83 0 152 61 152 150z" />
    <glyph glyph-name="oslash" unicode="&#xf8;" horiz-adv-x="737" 
d="M718 626c0 0 -72 -84 -96 -111c50 -51 78 -126 78 -208c0 -195 -136 -329 -336 -329c-63 0 -112 6 -170 44l-37 -37h-133s80 86 93 102c-45 49 -82 136 -82 217c0 184 145 322 334 322c62 0 130 -17 174 -46c12 13 41 46 41 46h134zM516 306c0 22 -10 56 -20 64
c-17 -19 -164 -190 -181 -210c8 -8 32 -10 52 -10c82 0 149 66 149 156zM423 438c-10 7 -40 13 -55 13c-90 0 -154 -71 -154 -151c0 -26 11 -63 23 -75c17 19 172 198 186 213z" />
    <glyph glyph-name="questiondown" unicode="&#xbf;" horiz-adv-x="591" 
d="M419 510c0 -62 -50 -108 -112 -108c-59 0 -110 50 -110 110c0 62 49 113 111 113s111 -53 111 -115zM571 60c-21 -163 -112 -233 -271 -233c-154 0 -271 94 -271 233c0 112 73 204 195 215v89h181v-214h-78c-50 0 -102 -31 -102 -91c0 -55 38 -77 81 -77
c39 0 71 20 72 78c0 0 161 1 193 0z" />
    <glyph glyph-name="exclamdown" unicode="&#xa1;" horiz-adv-x="300" 
d="M258 510c0 -62 -50 -108 -112 -108c-59 0 -110 50 -110 110c0 62 49 113 111 113s111 -53 111 -115zM253 -158h-213l12 518h189z" />
    <glyph glyph-name="guillemotleft" unicode="&#xab;" horiz-adv-x="560" 
d="M528 442l-125 -161l124 -165h-137l-134 169l133 157h139zM303 442l-125 -161l124 -165h-137l-134 169l133 157h139z" />
    <glyph glyph-name="guillemotright" unicode="&#xbb;" horiz-adv-x="560" 
d="M531 273l-133 -157h-139l125 161l-124 165h137zM306 273l-133 -157h-139l125 161l-124 165h137z" />
    <glyph glyph-name="ellipsis" unicode="&#x2026;" 
d="M931 102c0 -56 -46 -102 -102 -102s-102 46 -102 102s46 101 102 101s102 -45 102 -101zM598 101c0 -56 -46 -102 -102 -102s-102 46 -102 102s46 101 102 101s102 -45 102 -101zM266 101c0 -56 -46 -102 -102 -102s-102 46 -102 102s46 101 102 101s102 -45 102 -101z
" />
    <glyph glyph-name="nbspace" horiz-adv-x="210" 
 />
    <glyph glyph-name="Agrave" unicode="&#xc0;" horiz-adv-x="842" 
d="M818 0h-216l-52 142h-265l-51 -142h-213l284 765l229 1zM498 296l-81 234l-82 -234h163zM532 878l-31 -57l-271 119l56 94z" />
    <glyph glyph-name="Atilde" unicode="&#xc3;" horiz-adv-x="842" 
d="M818 0h-216l-52 142h-265l-51 -142h-213l284 765l229 1zM498 296l-81 234l-82 -234h163zM662 928c0 0 -74 -70 -145 -70c-75 0 -108 49 -179 49c-63 0 -101 -50 -101 -50l-62 40s62 91 162 91c80 0 108 -43 174 -46c33 -1 63 16 95 39z" />
    <glyph glyph-name="Otilde" unicode="&#xd5;" horiz-adv-x="934" 
d="M889 391c0 -248 -188 -419 -423 -419c-248 0 -422 176 -422 412c0 245 190 410 423 410c240 0 422 -177 422 -403zM687 387c0 123 -94 219 -221 219c-128 0 -220 -95 -220 -225s89 -222 219 -222s222 94 222 228zM710 928c0 0 -74 -70 -145 -70c-75 0 -108 49 -179 49
c-63 0 -101 -50 -101 -50l-62 40s62 91 162 91c80 0 108 -43 174 -46c33 -1 63 16 95 39z" />
    <glyph glyph-name="OE" unicode="&#x152;" horiz-adv-x="1188" 
d="M1135 0h-448v30s-82 -58 -221 -58c-248 0 -422 176 -422 412c0 245 190 410 423 410c133 0 220 -57 220 -57v29h444v-174h-244v-124h230v-170h-230v-128h248v-170zM687 387c0 123 -94 219 -221 219c-128 0 -220 -95 -220 -225s89 -222 219 -222s222 94 222 228z" />
    <glyph glyph-name="oe" unicode="&#x153;" horiz-adv-x="1163" 
d="M1129 253h-432c16 -73 74 -113 144 -113c61 0 101 43 133 85c0 0 111 -64 145 -85c-54 -96 -158 -155 -287 -155c-84 0 -169 33 -232 94c0 0 -94 -94 -235 -94c-188 0 -330 136 -330 319c0 184 145 322 334 322c85 0 166 -20 237 -87c0 0 77 87 221 87
c177 0 302 -117 302 -336c0 -15 1 -23 0 -37zM937 383c-22 59 -54 87 -112 87c-63 0 -98 -30 -121 -87h233zM515 310c0 79 -60 141 -147 141c-90 0 -149 -66 -149 -150c0 -82 63 -151 148 -151c92 0 148 64 148 160z" />
    <glyph glyph-name="endash" unicode="&#x2013;" horiz-adv-x="801" 
d="M762 257h-716v163h716v-163z" />
    <glyph glyph-name="emdash" unicode="&#x2014;" horiz-adv-x="928" 
d="M890 257h-844v163h844v-163z" />
    <glyph glyph-name="quotedblleft" unicode="&#x201c;" horiz-adv-x="600" 
d="M525 766l-34 -322h-166l86 322h114zM277 766l-34 -322h-166l86 322h114z" />
    <glyph glyph-name="quotedblright" unicode="&#x201d;" horiz-adv-x="600" 
d="M525 766l-86 -322h-114l34 322h166zM277 766l-86 -322h-114l34 322h166z" />
    <glyph glyph-name="quoteleft" unicode="&#x2018;" horiz-adv-x="300" 
d="M248 766l-34 -322h-166l86 322h114z" />
    <glyph glyph-name="quoteright" unicode="&#x2019;" horiz-adv-x="300" 
d="M248 766l-86 -322h-114l34 322h166z" />
    <glyph glyph-name="divide" unicode="&#xf7;" horiz-adv-x="600" 
d="M390 437c0 -49 -41 -89 -90 -89s-90 40 -90 89c0 50 40 90 90 90s90 -40 90 -90zM574 176h-549v147h549v-147zM390 61c0 -49 -41 -89 -90 -89s-90 40 -90 89c0 50 40 90 90 90s90 -40 90 -90z" />
    <glyph glyph-name="lozenge" unicode="&#x25ca;" horiz-adv-x="600" 
d="M541 130h-326v-103l-188 272l188 272v-106h326v-335z" />
    <glyph glyph-name="ydieresis" unicode="&#xff;" horiz-adv-x="686" 
d="M672 614l-357 -831h-197l138 299l-247 532h207l134 -317l129 317h193zM492 660h-88v133h88v-133zM282 660h-87v133h87v-133z" />
    <glyph glyph-name="Ydieresis" unicode="&#x178;" horiz-adv-x="802" 
d="M789 766l-284 -426v-340h-196v336l-294 430h248l144 -236l142 236h240zM548 854h-88v133h88v-133zM338 854h-87v133h87v-133z" />
    <glyph glyph-name="Euro" unicode="&#x20ac;" horiz-adv-x="877" 
d="M767 594c-39 14 -112 36 -185 36c-106 0 -179 -53 -214 -134h284v-67h-303c-3 -18 -5 -37 -5 -57c0 -8 1 -17 2 -25h275v-67h-259c36 -89 124 -144 231 -144c58 0 132 20 172 33v-153c-34 -11 -121 -38 -186 -38c-195 0 -357 118 -399 302h-130v67h121c-1 9 -1 18 -1 28
c0 18 1 37 3 54h-102v67h114c47 179 197 292 386 292c89 0 167 -26 196 -38v-156z" />
    <glyph glyph-name="quotedblbase" unicode="&#x201e;" horiz-adv-x="600" 
d="M582 176l-172 -322h-114l120 322h166zM294 176l-172 -322h-114l120 322h166z" />
    <glyph glyph-name="perthousand" unicode="&#x2030;" horiz-adv-x="1180" 
d="M1144 170c0 -109 -74 -184 -172 -184c-106 0 -180 77 -180 186c0 98 78 180 176 180c99 0 176 -76 176 -182zM1028 174c0 49 -18 90 -60 90c-43 0 -60 -47 -60 -92c0 -48 21 -95 65 -95s55 49 55 97zM386 596c0 -109 -74 -184 -172 -184c-106 0 -180 77 -180 186
c0 98 78 180 176 180c99 0 176 -76 176 -182zM270 600c0 49 -18 90 -60 90c-43 0 -60 -47 -60 -92c0 -48 21 -95 65 -95s55 49 55 97zM672 766l-467 -766h-93l468 766h92zM746 170c0 -109 -74 -184 -172 -184c-106 0 -180 77 -180 186c0 98 78 180 176 180
c99 0 176 -76 176 -182zM630 174c0 49 -18 90 -60 90c-43 0 -60 -47 -60 -92c0 -48 21 -95 65 -95s55 49 55 97z" />
    <glyph glyph-name="Acircumflex" unicode="&#xc2;" horiz-adv-x="842" 
d="M818 0h-216l-52 142h-265l-51 -142h-213l284 765l229 1zM498 296l-81 234l-82 -234h163zM678 821h-122l-141 90l-128 -90h-122l249 213z" />
    <glyph glyph-name="Ecircumflex" unicode="&#xca;" horiz-adv-x="612" 
d="M533 0h-448v766h444v-174h-244v-124h230v-170h-230v-128h248v-170zM566 821h-122l-141 90l-128 -90h-122l249 213z" />
    <glyph glyph-name="Aacute" unicode="&#xc1;" horiz-adv-x="842" 
d="M818 0h-216l-52 142h-265l-51 -142h-213l284 765l229 1zM498 296l-81 234l-82 -234h163zM599 940l-271 -119l-31 57l246 156z" />
    <glyph glyph-name="Edieresis" unicode="&#xcb;" horiz-adv-x="612" 
d="M533 0h-448v766h444v-174h-244v-124h230v-170h-230v-128h248v-170zM468 854h-88v133h88v-133zM258 854h-87v133h87v-133z" />
    <glyph glyph-name="Egrave" unicode="&#xc8;" horiz-adv-x="612" 
d="M533 0h-448v766h444v-174h-244v-124h230v-170h-230v-128h248v-170zM428 878l-31 -57l-271 119l56 94z" />
    <glyph glyph-name="Iacute" unicode="&#xcd;" horiz-adv-x="371" 
d="M244 0h-200v766h200v-766zM346 940l-271 -119l-31 57l246 156z" />
    <glyph glyph-name="Icircumflex" unicode="&#xce;" horiz-adv-x="371" 
d="M285 0h-200v766h200v-766zM454 821h-122l-141 90l-128 -90h-122l249 213z" />
    <glyph glyph-name="Idieresis" unicode="&#xcf;" horiz-adv-x="371" 
d="M247 0h-200v766h200v-766zM344 852h-88v133h88v-133zM134 852h-87v133h87v-133z" />
    <glyph glyph-name="Igrave" unicode="&#xcc;" horiz-adv-x="371" 
d="M285 0h-200v766h200v-766zM333 878l-31 -57l-271 119l56 94z" />
    <glyph glyph-name="Oacute" unicode="&#xd3;" horiz-adv-x="934" 
d="M889 391c0 -248 -188 -419 -423 -419c-248 0 -422 176 -422 412c0 245 190 410 423 410c240 0 422 -177 422 -403zM687 387c0 123 -94 219 -221 219c-128 0 -220 -95 -220 -225s89 -222 219 -222s222 94 222 228zM643 940l-271 -119l-31 57l246 156z" />
    <glyph glyph-name="Ocircumflex" unicode="&#xd4;" horiz-adv-x="934" 
d="M889 391c0 -248 -188 -419 -423 -419c-248 0 -422 176 -422 412c0 245 190 410 423 410c240 0 422 -177 422 -403zM687 387c0 123 -94 219 -221 219c-128 0 -220 -95 -220 -225s89 -222 219 -222s222 94 222 228zM716 821h-122l-141 90l-128 -90h-122l249 213z" />
    <glyph glyph-name="apple" horiz-adv-x="3403" 
d="M3248 0h-216l-52 142h-265l-51 -142h-213l284 765l229 1zM2928 296l-81 234l-82 -234h163zM2361 0h-190v508l-182 -488h-76l-184 493v-513h-190v766h270l142 -358l142 358h268v-766zM1369 0h-448v766h444v-174h-244v-124h230v-170h-230v-128h248v-170zM765 0h-200v311
h-280v-311h-200v766h200v-288h280v288h200v-766z" />
    <glyph glyph-name="Ograve" unicode="&#xd2;" horiz-adv-x="934" 
d="M889 391c0 -248 -188 -419 -423 -419c-248 0 -422 176 -422 412c0 245 190 410 423 410c240 0 422 -177 422 -403zM687 387c0 123 -94 219 -221 219c-128 0 -220 -95 -220 -225s89 -222 219 -222s222 94 222 228zM576 878l-31 -57l-271 119l56 94z" />
    <glyph glyph-name="Uacute" unicode="&#xda;" horiz-adv-x="847" 
d="M761 276c0 -175 -119 -298 -342 -298c-169 0 -334 88 -334 276v512h200v-470c0 -102 62 -138 138 -138c73 0 136 39 136 128v480h202v-490zM629 940l-271 -119l-31 57l246 156z" />
    <glyph glyph-name="Ucircumflex" unicode="&#xdb;" horiz-adv-x="847" 
d="M761 276c0 -175 -119 -298 -342 -298c-169 0 -334 88 -334 276v512h200v-470c0 -102 62 -138 138 -138c73 0 136 39 136 128v480h202v-490zM678 821h-122l-141 90l-128 -90h-122l249 213z" />
    <glyph glyph-name="Ugrave" unicode="&#xd9;" horiz-adv-x="847" 
d="M761 276c0 -175 -119 -298 -342 -298c-169 0 -334 88 -334 276v512h200v-470c0 -102 62 -138 138 -138c73 0 136 39 136 128v480h202v-490zM536 878l-31 -57l-271 119l56 94z" />
    <glyph glyph-name="dotlessi" unicode="&#x131;" horiz-adv-x="316" 
d="M251 0h-186v614h186v-614z" />
    <glyph glyph-name="circumflex" unicode="&#x2c6;" horiz-adv-x="530" 
d="M520 659h-122l-141 90l-128 -90h-122l249 213z" />
    <glyph glyph-name="tilde" unicode="&#x2dc;" horiz-adv-x="508" 
d="M498 740c0 0 -74 -70 -145 -70c-75 0 -108 49 -179 49c-63 0 -101 -50 -101 -50l-62 40s62 91 162 91c80 0 108 -43 174 -46c33 -1 63 16 95 39z" />
    <glyph glyph-name="dotaccent" unicode="&#x2d9;" horiz-adv-x="118" 
d="M102 660h-87v133h87v-133z" />
    <glyph glyph-name="ring" unicode="&#x2da;" horiz-adv-x="316" 
d="M263 770c0 -62 -51 -112 -113 -112s-113 50 -113 112s51 113 113 113s113 -51 113 -113zM223 770c0 41 -33 74 -74 74s-74 -33 -74 -74s33 -74 74 -74s74 33 74 74z" />
    <glyph glyph-name="cedilla" unicode="&#xb8;" horiz-adv-x="213" 
d="M213 -133c0 -53 -65 -92 -124 -92c-63 0 -72 8 -106 19l22 47c20 -7 41 -16 63 -16c36 0 55 15 55 37c0 26 -25 28 -48 28c-10 0 -19 -4 -29 -6l-9 9l47 119h63l-28 -71c18 0 94 -1 94 -74z" />
    <glyph glyph-name="hungarumlaut" unicode="&#x2dd;" horiz-adv-x="600" 
d="M577 778l-271 -119l-31 57l246 156zM309 778l-271 -119l-31 57l246 156z" />
    <glyph glyph-name="ogonek" unicode="&#x2db;" horiz-adv-x="304" 
d="M274 -246c-68 0 -249 5 -249 139c0 94 98 119 160 133c-30 -26 -58 -45 -58 -90c0 -96 86 -125 147 -128v-54z" />
    <glyph glyph-name="caron" unicode="&#x2c7;" horiz-adv-x="527" 
d="M518 872l-249 -213l-264 213h122l141 -90l128 90h122z" />
    <glyph glyph-name="currency" unicode="&#xa4;" horiz-adv-x="610" 
d="M554 473h-37v267h-12l-53 -267h-51l-56 265h-13v-265h-39v292h83l51 -249h5l42 249h80v-292zM251 556c0 -54 -41 -88 -107 -88c-96 0 -115 61 -115 103h42c0 -26 7 -66 74 -66c38 0 65 19 65 49c0 27 -16 37 -59 48c-22 6 -36 12 -59 19c-30 9 -54 29 -54 64
c0 44 32 84 102 84c87 0 101 -60 101 -88h-41c0 21 -19 53 -61 53s-59 -25 -59 -46c0 -22 16 -29 45 -38c22 -7 43 -14 70 -22c33 -10 56 -30 56 -72z" />
    <glyph glyph-name="diamondwhite" horiz-adv-x="600" 
d="M523 358l-231 -377l-223 377l223 364zM470 358l-178 281l-171 -281l171 -290z" />
    <glyph glyph-name="diamondblack" horiz-adv-x="600" 
d="M525 358l-231 -377l-223 377l223 364z" />
    <glyph glyph-name="Pcircle" horiz-adv-x="500" 
d="M483 562c0 -131 -102 -241 -233 -241s-241 102 -241 233s105 241 236 241c130 0 238 -103 238 -233zM450 558c0 112 -91 203 -203 203s-203 -91 -203 -203s91 -203 203 -203s203 91 203 203zM347 611c0 -41 -23 -72 -82 -72h-60v-102h-37v248h93c52 0 86 -19 86 -74z
M311 613c0 24 -17 37 -49 37h-58v-78h54c42 0 53 11 53 41z" />
    <glyph glyph-name="eight.superior" horiz-adv-x="347" 
d="M332 471c0 -77 -66 -120 -159 -120c-99 0 -153 48 -153 123c0 56 41 91 86 100v2c-15 0 -68 26 -68 91c0 66 63 103 141 103c71 0 132 -39 132 -104c0 -48 -25 -75 -65 -89l-1 -2s87 -15 87 -104zM219 661c0 25 -20 41 -45 41s-44 -18 -44 -42c0 -27 19 -45 45 -45
c28 0 44 18 44 46zM229 482c0 29 -21 54 -52 54s-53 -25 -53 -56c0 -28 23 -51 51 -51c34 0 54 24 54 53z" />
    <glyph glyph-name="roundplus" horiz-adv-x="600" 
d="M589 244c-149 0 -169 -17 -169 -172h-236c0 153 -20 171 -168 171v236c148 0 168 19 168 166h236c0 -147 19 -166 169 -166v-235zM548 285v152c-127 0 -171 45 -171 168h-150c0 -121 -43 -168 -170 -168v-152c121 0 170 -38 170 -172h149c0 124 46 172 172 172z" />
    <glyph glyph-name="two.superior" horiz-adv-x="349" 
d="M332 365h-317l169 196c16 18 36 48 36 76c0 27 -19 47 -48 47c-36 0 -48 -26 -48 -65h-101c1 89 53 151 153 151c81 0 146 -57 146 -133c0 -78 -60 -134 -121 -189h131v-83z" />
    <glyph glyph-name="openarrowright" 
d="M563 712h-25v25zM587 687h-24v24zM613 659l-16 -14l-16 16l16 15zM647 624l-16 -15l-17 17l17 15zM714 555l-16 -14l-16 16l16 15zM681 589l-17 -15l-16 16l17 15zM748 520l-16 -15l-17 17l17 15zM782 485l-17 -15l-16 16l17 15zM816 450l-16 -14l-17 16l17 15zM850 415
l-16 -15l-16 17l16 15zM884 380l-17 -15l-16 16l17 15zM560 664h-22v23h22v-23zM848 348l-16 -16l-16 14l16 17zM560 616h-22v22h22v-22zM560 568h-22v23h22v-23zM814 313l-16 -16l-17 14l17 17zM560 520h-22v23h22v-23zM780 278l-16 -16l-17 15l16 16zM511 520h-23v23h23
v-23zM463 520h-23v23h23v-23zM746 243l-16 -16l-17 14l17 17zM413 520h-22v23h22v-23zM712 208l-16 -16l-16 15l16 16zM365 520h-22v23h22v-23zM316 520h-23v23h23v-23zM679 174l-16 -16l-17 15l16 16zM561 228h-23v22h23v-22zM268 520h-23v23h23v-23zM645 139l-16 -16
l-17 15l17 16zM561 179h-23v24h23v-24zM218 521h-22v22h22v-22zM510 227h-22v23h22v-23zM611 104l-16 -16l-16 15l16 16zM172 521h-22v22h22v-22zM561 132h-23v23h23v-23zM462 227h-22v23h22v-23zM172 472h-22v23h22v-23zM587 81l-23 -24v24h23zM561 81h-23v24h23v-24z
M413 227h-23v23h23v-23zM172 423h-22v23h22v-23zM563 56l-24 -25v25h24zM365 227h-23v23h23v-23zM172 374h-22v23h22v-23zM315 227h-22v23h22v-23zM172 326h-22v22h22v-22zM267 227h-22v23h22v-23zM172 276h-22v24h22v-24zM218 227h-23v22h23v-22zM172 227h-23v22h23v-22z
" />
    <glyph glyph-name="openarrowleft" 
d="M872 515h-23v22h23v-22zM826 515h-23v22h23v-22zM872 467h-23v23h23v-23zM872 419h-23v23h23v-23zM776 514h-22v23h22v-23zM872 372h-23v23h23v-23zM728 514h-22v23h22v-23zM679 514h-23v23h23v-23zM872 321h-23v22h23v-22zM483 706h-24l24 25v-25zM631 514h-23v23h23
v-23zM872 272h-23v24h23v-24zM484 658h-23v23h23v-23zM458 681h-23l23 24v-24zM581 514h-22v23h22v-23zM484 610h-23v22h23v-22zM872 221h-22v22h22v-22zM441 655l-16 -16l-16 14l16 17zM533 514h-22v23h22v-23zM826 221h-22v22h22v-22zM484 562h-23v23h23v-23zM407 620
l-16 -17l-17 15l16 17zM484 514h-23v23h23v-23zM777 221h-23v23h23v-23zM729 221h-23v23h23v-23zM373 584l-16 -16l-16 15l15 16zM679 221h-22v23h22v-23zM340 551l-16 -16l-16 14l16 17zM631 221h-22v23h22v-23zM306 516l-16 -17l-17 15l16 17zM582 221h-23v23h23v-23z
M534 221h-23v23h23v-23zM272 480l-16 -16l-16 15l15 16zM483 222h-22v22h22v-22zM238 446l-16 -16l-16 14l16 17zM483 173h-22v24h22v-24zM483 126h-22v23h22v-23zM203 411l-15 -17l-17 15l16 17zM483 75h-22v24h22v-24zM205 340l-16 -14l-16 16l17 15zM240 305l-16 -14
l-16 16l16 15zM274 271l-17 -15l-15 16l16 15zM170 375l-16 -16l-16 15l15 16zM308 235l-17 -14l-16 16l17 15zM342 201l-16 -15l-16 16l16 15zM375 167l-17 -15l-15 16l16 15zM409 132l-17 -15l-16 16l17 15zM443 97l-16 -15l-16 16l16 15zM458 51l-24 24h24v-24zM483 25
l-25 25h25v-25z" />
    <glyph glyph-name="blacksquare" 
d="M860 0h-720v730h720v-730z" />
    <glyph glyph-name="whitesquare" 
d="M855 0h-720v730h720v-730zM821 36v660h-650v-660h650z" />
    <glyph glyph-name="blackcircle" 
d="M792 394c0 -164 -128 -304 -292 -304c-162 0 -291 130 -290 298c0 163 130 290 290 290c159 0 292 -125 292 -284z" />
    <glyph glyph-name="whitecircle" 
d="M799 379c0 -167 -138 -303 -305 -303c-168 0 -298 142 -298 310c0 167 138 299 305 299s298 -139 298 -306zM760 376c0 150 -111 272 -257 272s-268 -115 -268 -261c0 -147 113 -273 260 -273c145 0 265 113 265 262z" />
    <glyph glyph-name="check" 
d="M893 542c-24 -37 -38 -62 -52 -104c-12 -35 -18 -59 -22 -96c-104 -30 -165 -50 -262 -98c-158 -79 -251 -129 -392 -238l-20 16c22 65 33 106 42 174c7 56 9 89 8 146l116 38c-10 -53 -19 -84 -34 -136c-18 -62 -32 -98 -56 -158c117 127 209 195 342 288
c118 82 196 117 330 168z" />
    <glyph glyph-name="blackstar" 
d="M853 406l-224 -165l85 -257l-219 159l-219 -157l82 256l-222 164h278l82 266l86 -266h271z" />
    <glyph glyph-name="whitestar" 
d="M845 408l-224 -165l85 -257l-219 159l-219 -157l82 256l-222 164h278l82 266l86 -266h271zM768 378h-212l-68 211l-65 -211h-211l172 -123l-65 -201l171 123l171 -133l-69 212z" />
    <glyph glyph-name="badge" 
d="M807 353l-43 -45l27 -49l-54 -26l6 -58l-59 -6l-9 -56l-58 5l-30 -48l-50 25l-43 -39l-42 39l-48 -30l-24 53l-62 -12l-15 57l-52 7l4 56l-52 22l19 53l-42 40l35 44l-30 51l49 30l-18 57l57 19l3 60l63 3l18 51l53 -16l36 42l45 -32l45 33l36 -45l52 18l24 -54l62 2v-59
l60 -16l-18 -54l51 -32l-35 -49z" />
    <glyph glyph-name="slashpricetwo" horiz-adv-x="210" 
d="M3263 681l-3199 -753l-14 57l3200 754z" />
    <glyph glyph-name="recycle" horiz-adv-x="977" 
d="M743 631l-16 -27l-84 -144l-2 -5h-5l-165 1h-31l27 16l26 15l-67 117c-51 -89 -133 -229 -134 -231l-4 -7l-7 4l-175 101l-7 4l4 7c1 2 100 177 124 215c16 27 43 43 72 43h253c33 0 65 -19 82 -48l53 -93l29 17zM697 586l-9 -5l-7 -5l-4 8l-58 100c-14 24 -40 39 -67 39
c-36 0 -70 -20 -88 -52c-5 -9 -15 -27 -29 -50l77 -133l4 -7l-7 -4l-7 -4l129 -1zM492 723h-193c-23 0 -45 -13 -58 -34c-21 -34 -101 -174 -120 -208l161 -93c24 42 148 255 168 291c10 19 25 34 42 44zM886 156l-126 -219c-17 -29 -48 -47 -83 -47h-107v-32l-1 -30l-15 26
l-83 143l-2 5l2 4l83 144l16 27v-31v-32h135l-133 231l-4 7l7 4l175 101l7 5l4 -7c1 -2 103 -176 125 -216c15 -27 15 -58 0 -83zM872 164c12 20 11 45 -1 68c-19 34 -100 174 -120 207l-161 -93l134 -232h59c37 -1 71 19 89 50zM842 112c-18 -10 -38 -15 -59 -15
c-45 1 -220 0 -222 0h-8v9v9l-65 -113l65 -113v10v8h8h116c29 0 55 15 68 38c59 102 97 167 97 167zM419 -105h-9c-2 0 -203 -1 -248 0c-32 1 -73 41 -73 41l-126 220c-16 28 -16 64 1 94l54 93l-28 16l-27 16h31h166h5l2 -4l83 -144l16 -27l-27 16l-28 16
c-11 -19 -41 -72 -67 -118h266h9v-8v-202v-9zM221 245l-66 113h-130l8 -4l7 -5l-4 -7l-58 -100c-14 -25 -14 -55 -1 -78c59 -102 97 -167 97 -167c0 20 5 40 16 58c23 39 110 190 111 192l4 7l7 -4zM402 -88v185l-268 1c-12 -22 -23 -41 -29 -51c-19 -32 -18 -71 -1 -102
c12 -21 33 -32 59 -33c39 -1 201 0 239 0z" />
    <glyph glyph-name="whitearrowup" 
d="M855 -1l-720 1l362 729zM799 36l-303 615l-302 -615h605z" />
    <glyph glyph-name="blackarrowup" 
d="M855 -1l-720 1l362 729z" />
    <glyph glyph-name="boxcrossed" 
d="M855 0h-720v730h720v-730zM821 36v660h-650v-660h650zM748 583l-215 -219l214 -216l-40 -37l-212 216l-214 -218l-39 38l215 218l-216 219l41 36l212 -218l216 220z" />
    <glyph glyph-name="thinarrowright" 
d="M873 358c-105 -49 -187 -151 -187 -151h-39s33 86 84 139h-597v50h597c-48 54 -84 140 -84 140h39s83 -104 187 -150v-28z" />
    <glyph glyph-name="thinarrowleft" 
d="M856 346h-597c48 -54 84 -140 84 -140h-39s-83 104 -187 150v28c105 49 187 151 187 151h39s-33 -86 -84 -139h597v-50z" />
    <glyph glyph-name="slashpricethree" horiz-adv-x="210" 
d="M3784 681l-3851 -753l-11 58l3851 753z" />
    <glyph glyph-name="slashpriceone" horiz-adv-x="210" 
d="M2652 682l-2585 -754l-17 57l2586 754z" />
    <glyph glyph-name="one.superior" horiz-adv-x="215" 
d="M171 365h-102v307h-56v84h158v-391z" />
    <glyph glyph-name="three.superior" horiz-adv-x="356" 
d="M343 479c0 -79 -76 -127 -155 -127c-83 0 -160 49 -160 141h101c0 -31 13 -58 56 -58c33 0 53 21 53 52c0 40 -30 55 -72 55h-19v66h18c38 0 60 8 60 45c0 26 -20 43 -43 43c-26 0 -45 -22 -45 -49h-92c0 74 65 123 137 123c68 0 137 -40 137 -110c0 -34 -17 -63 -46 -77
c30 -12 70 -41 70 -104z" />
    <glyph glyph-name="four.superior" horiz-adv-x="354" 
d="M341 450h-52v-85h-98v85h-173v77l169 229h102v-232h52v-74zM194 523v122l-91 -122h91z" />
    <glyph glyph-name="five.superior" horiz-adv-x="325" 
d="M309 496c0 -94 -83 -145 -161 -145c-56 0 -99 16 -139 40l15 85s51 -39 108 -39c46 0 74 24 74 61c0 43 -43 61 -93 61c-33 0 -77 -15 -77 -15l37 212h205v-82h-138l-6 -49s18 3 30 3c76 0 145 -47 145 -132z" />
    <glyph glyph-name="six.superior" horiz-adv-x="357" 
d="M347 499c0 -99 -80 -147 -166 -147c-93 0 -165 54 -165 145c0 56 24 92 59 138l94 121h129l-117 -132s22 8 41 8c71 0 125 -62 125 -133zM244 497c0 35 -26 61 -64 61c-36 0 -64 -27 -64 -62c0 -34 27 -61 64 -61c38 0 64 27 64 62z" />
    <glyph glyph-name="seven.superior" horiz-adv-x="342" 
d="M350 756l-214 -391h-120l178 308h-164v83h320z" />
    <glyph glyph-name="nine.superior" horiz-adv-x="357" 
d="M344 629c0 -51 -27 -89 -59 -140l-79 -124h-123l106 145s-34 -15 -54 -15c-72 0 -120 54 -120 128c0 98 80 147 168 147c92 0 161 -50 161 -141zM242 628c0 34 -26 61 -63 61c-38 0 -64 -27 -64 -62c0 -34 25 -61 64 -61c36 0 63 28 63 62z" />
    <glyph glyph-name="zero.superior" horiz-adv-x="404" 
d="M392 564c0 -125 -77 -213 -186 -213s-191 85 -191 204c0 132 78 215 191 215c107 0 186 -85 186 -206zM291 561c0 74 -31 122 -90 122c-58 0 -85 -50 -85 -124s32 -120 91 -120c57 0 84 49 84 122z" />
    <glyph glyph-name="eurofill" horiz-adv-x="845" 
d="M768 335c0 -26 -12 -30 -27 -30h-321h-228v-159c0 -11 0 -17 1 -20c46 -70 134 -111 230 -110c95 0 161 49 191 78c8 7 17 16 25 19c10 3 19 3 24 -3c11 -12 -7 -28 -27 -42c-43 -28 -100 -74 -214 -75c-196 -2 -354 147 -355 331c-1 183 163 332 350 334
c179 1 351 -144 351 -323zM649 338v169c0 4 1 12 -3 17c-63 81 -144 110 -229 110c-90 -1 -168 -40 -216 -100c-6 -8 -9 -12 -9 -23v-173h228h229z" />
    <glyph glyph-name="H_E_M_A" horiz-adv-x="3403" 
d="M3248 0h-216l-52 142h-265l-51 -142h-213l284 765l229 1zM2928 296l-81 234l-82 -234h163zM2361 0h-190v508l-182 -488h-76l-184 493v-513h-190v766h270l142 -358l142 358h268v-766zM1369 0h-448v766h444v-174h-244v-124h230v-170h-230v-128h248v-170zM765 0h-200v311
h-280v-311h-200v766h200v-288h280v288h200v-766z" />
    <glyph glyph-name="grunepunkt" horiz-adv-x="883" 
d="M828 318c0 -212 -172 -384 -384 -384s-384 172 -384 384s172 384 384 384s384 -172 384 -384zM651 457c-26 -69 -113 -172 -207 -181v84c-94 -9 -181 -112 -207 -181c26 -69 113 -172 207 -181v83c255 -46 501 339 135 586c-42 16 -87 25 -135 25
c-207 0 -375 -168 -375 -374c0 -159 100 -295 240 -349c-366 246 -120 631 135 586v83c94 -9 181 -113 207 -181z" />
    <glyph glyph-name="dotnaught" horiz-adv-x="405" 
d="M404 346h-364v139h364v-139zM226 75c0 -54 -45 -99 -99 -99s-99 45 -99 99s45 99 99 99s99 -45 99 -99z" />
    <glyph glyph-name="blackarrowright" horiz-adv-x="643" 
d="M443 383l-383 -383v766z" />
    </font>
</defs>
</svg>
